<svg xmlns="http://www.w3.org/2000/svg" xmlns:xlink="http://www.w3.org/1999/xlink" viewBox="0 0 77.5 77.5"><defs><style>.cls-1{fill:none;}.cls-2{fill:#f2f2f2;}.cls-3{fill:#fff;}.cls-4{fill:#d8dce1;}.cls-5{fill:#b9bbc1;}.cls-6{fill:#5c546a;}.cls-7{fill:#8b8996;}.cls-8{clip-path:url(#clip-path);}.cls-9{fill:#39cefd;}.cls-10{fill:#03569b;}.cls-11{fill:url(#Unbenannter_Verlauf_3);}.cls-12{fill:#16b9fd;}.cls-13{fill:url(#Unbenannter_Verlauf_2);}</style><clipPath id="clip-path"><path class="cls-1" d="M55,55.81,44.17,66.66,55,77.5H42.62L38,72.85h0l-6.19-6.19L42.62,55.81ZM42.62,37.23,22.49,57.36l6.2,6.2L55,37.23Z"/></clipPath><linearGradient id="Unbenannter_Verlauf_3" x1="7663.25" y1="2866.94" x2="7681.71" y2="2848.48" gradientTransform="translate(-1876.03 -642.69) scale(0.25)" gradientUnits="userSpaceOnUse"><stop offset="0" stop-color="#1a237e" stop-opacity="0.4"/><stop offset="1" stop-color="#1a237e" stop-opacity="0"/></linearGradient><radialGradient id="Unbenannter_Verlauf_2" cx="7597.74" cy="2730.66" r="197.05" gradientTransform="translate(-1876.03 -642.69) scale(0.25)" gradientUnits="userSpaceOnUse"><stop offset="0" stop-color="#fff" stop-opacity="0.1"/><stop offset="1" stop-color="#fff" stop-opacity="0"/></radialGradient></defs><title>Dark</title><g id="Ebene_2" data-name="Ebene 2"><g id="Ebene_2-2" data-name="Ebene 2"><polygon class="cls-2" points="59.34 77.5 38.75 12.11 18.16 77.5 59.34 77.5"/><polygon class="cls-3" points="43.59 77.5 33.91 77.5 38.75 12.11 43.59 77.5"/><polygon class="cls-3" points="38.75 12.54 25.43 77.5 33.91 77.5 38.75 12.54"/><polygon class="cls-3" points="38.75 12.54 52.07 77.5 43.59 77.5 38.75 12.54"/><circle class="cls-3" cx="38.75" cy="31.48" r="4.84"/><path class="cls-4" d="M76.27,24s0-.06,0-.1l-.07-.18a1.1,1.1,0,0,0-.14-.21.76.76,0,0,0-.11-.14,1.77,1.77,0,0,0-.24-.17l-.1-.07L52,12.52a13.3,13.3,0,0,0-26.56,0L1.93,23.11l-.1.07a1.77,1.77,0,0,0-.24.17.76.76,0,0,0-.11.14.77.77,0,0,0-.14.21,1.34,1.34,0,0,0-.07.18s0,.06,0,.1L0,30a1.21,1.21,0,0,0,.25,1,1.22,1.22,0,0,0,.94.44H76.29A1.2,1.2,0,0,0,77.48,30Z"/><path class="cls-5" d="M38.75,0A13.33,13.33,0,0,0,25.47,12.52L1.93,23.11l-.1.07a1.77,1.77,0,0,0-.24.17.76.76,0,0,0-.11.14.77.77,0,0,0-.14.21,1.34,1.34,0,0,0-.07.18s0,.06,0,.1L0,30a1.21,1.21,0,0,0,.25,1,1.22,1.22,0,0,0,.94.44H38.75Z"/><path class="cls-6" d="M38.75,0A13.33,13.33,0,0,0,25.47,12.52H52A13.33,13.33,0,0,0,38.75,0Z"/><path class="cls-5" d="M0,30a1.21,1.21,0,0,0,.25,1,1.22,1.22,0,0,0,.94.44H76.29A1.2,1.2,0,0,0,77.48,30l-1.17-5.82H1.19Z"/><path class="cls-7" d="M38.75,24.22H1.19L0,30a1.21,1.21,0,0,0,.25,1,1.22,1.22,0,0,0,.94.44H38.75Z"/><path class="cls-7" d="M52,12.52A13.33,13.33,0,0,0,38.75,0V12.52Z"/><g class="cls-8"><polygon class="cls-9" points="55.01 55.81 55.01 55.81 55.01 55.81 42.62 55.81 31.78 66.66 37.97 72.85 55.01 55.81"/></g><g class="cls-8"><polygon class="cls-9" points="28.69 63.56 22.49 57.37 42.62 37.23 55.01 37.23 28.69 63.56"/></g><g class="cls-8"><polygon class="cls-10" points="37.97 72.85 42.62 77.5 55.01 77.5 55.01 77.5 44.17 66.66 37.97 72.85"/></g><g class="cls-8"><polygon class="cls-11" points="37.97 72.85 47.16 69.67 44.17 66.66 37.97 72.85"/></g><g class="cls-8"><rect class="cls-12" x="33.6" y="62.27" width="8.76" height="8.76" transform="translate(-36.01 46.38) rotate(-45)"/></g><path class="cls-13" d="M55,55.81,44.17,66.66,55,77.5H42.62L38,72.85h0l-6.19-6.19L42.62,55.81ZM42.62,37.23,22.49,57.36l6.2,6.2L55,37.23Z"/></g></g></svg>